# xmcd
#
# Track frame offsets:
#	183
#	17163
#	34545
#	55558
#	71160
#	89298
#	105968
#	125333
#	147428
#	165508
#	185610
#
# Disc length: 2658 seconds
#
# Revision: 1
# Processed by: cddbd v1.5.2PL0 Copyright (c) Steve Scherf et al.
# Submitted via: audiograbber 1.83.01
#
DISCID=8a0a600b
DTITLE=Thomas Forstner - Haut Nah
DYEAR=1994
DGENRE=Schlager
TTITLE0=Dreh Dich Nicht Um
TTITLE1=Schenk Mir Noch eine Nacht
TTITLE2=Nur Mit Dir
TTITLE3=Wer Wie Du Seine Träume Verliert
TTITLE4=Wenn Der Himmel Brennt
TTITLE5=Voll Erwischt
TTITLE6=Die Flügel Meiner Träume
TTITLE7=Die Sünderin
TTITLE8=In Der 4.Dimension
TTITLE9=Was Wird Sein
TTITLE10=Nur Ein Lied
EXTD=
EXTT0=
EXTT1=
EXTT2=
EXTT3=
EXTT4=
EXTT5=
EXTT6=
EXTT7=
EXTT8=
EXTT9=
EXTT10=
PLAYORDER=
